<svg width="155" height="55" xmlns="http://www.w3.org/2000/svg" data-name="Layer 1">

 <title>theguardian logo</title>
 <g>
  <title>Layer 1</title>
  <g id="layer1">
   <g id="g96">
    <path fill="#231f20" d="m35.35,28.66l2.67,-1.38l0,-20.93l-2.02,0l-4.92,6.52l-0.55,0l0.31,-7.33l21.32,0l0.31,7.34l-0.59,0l-4.81,-6.53l-2.07,0l0,20.88l2.68,1.41l0,0.71l-12.33,0l0,-0.69m19.2,-0.92l0,-23.19l-2.07,-0.83l0,-0.43l7.47,-1.38l0.82,0l0,11l0.17,-0.18a10,10 0 0 1 6.41,-2.37c3.27,0 4.71,1.85 4.71,5.29l0,12.08l1.75,0.95l0,0.66l-9.81,0l0,-0.66l1.76,-1l0,-12.06c0,-1.9 -0.83,-2.65 -2.38,-2.65a4.11,4.11 0 0 0 -2.59,0.85l0,14l1.73,0.95l0,0.63l-9.78,0l0,-0.63l1.77,-1m24.58,-7.13c0.2,3.83 1.92,6.8 6,6.8a9.46,9.46 0 0 0 4.66,-1.6l0,0.75a9.18,9.18 0 0 1 -7.19,3.35c-6.31,0 -9.53,-3.51 -9.53,-9.58s3.53,-9.63 9.22,-9.63c5.36,0 8.14,2.68 8.14,9.74l0,0.18l-11.26,0m-0.11,-0.88l5.56,-0.34c0,-4.75 -0.81,-7.9 -2.44,-7.9s-3.12,3.67 -3.12,8.24l0,0m-78.36,18.87c0,-10.09 6.68,-13.69 14.12,-13.69a23,23 0 0 1 7.81,1.2l0.14,7l-0.73,0l-4.36,-6.81a6.39,6.39 0 0 0 -2.77,-0.45c-4,0 -6,4.57 -5.91,12.06c0.07,9 1.63,13 5.26,13a5.62,5.62 0 0 0 2.18,-0.36l0,-9.6l-2.4,-1.28l0,-0.82l11.6,0l0,0.86l-2.36,1.32l0,9.47a25.83,25.83 0 0 1 -8.75,1.46c-8.46,0 -13.83,-3.92 -13.83,-13.39l0,0m23.86,-4.71l0,-0.58l7.77,-1.32l0.85,0.08l0,15.34c0,1.85 0.89,2.42 2.39,2.42a3.19,3.19 0 0 0 2.52,-1.19l0,-13.8l-2.13,-0.93l0,-0.6l7.76,-1.37l0.79,0.07l0,17.61l2.09,0.88l0,0.56l-7.56,0.93l-0.78,-0.07l0,-2.32l-0.22,0a8.62,8.62 0 0 1 -5.83,2.46c-3.73,0 -5.44,-2.21 -5.44,-5.55l0,-11.67l-2.16,-0.92m48.81,-2l0.64,0.07l0,5.7l0.18,0c0.83,-4.14 2.67,-5.7 4.91,-5.7a2.64,2.64 0 0 1 1,0.15l0,5.77a6.66,6.66 0 0 0 -1.6,-0.14a9.8,9.8 0 0 0 -4.24,0.84l0,11.23l1.77,1l0,0.77l-10.18,0l0,-0.77l1.81,-1l0,-15.32l-2.13,-0.64l0,-0.51l7.79,-1.44m19.54,0.48l0,-6l-2.14,-0.75l0,-0.47l7.86,-1.44l0.75,0.11l0,25.73l2.17,0.79l0,0.66l-7.77,1l-0.6,-0.07l0,-2.08l-0.14,0a6.93,6.93 0 0 1 -5.18,2.17c-4.23,0 -7.32,-3.24 -7.32,-9.84c0,-7 3.59,-10.4 9,-10.4a7.67,7.67 0 0 1 3.38,0.59l0,0m0,16.48l0,-15.4a2.86,2.86 0 0 0 -2.15,-0.67c-2.1,0.07 -3.4,3.24 -3.4,8.9c0,5.09 0.93,7.93 3.73,7.84a2.82,2.82 0 0 0 1.82,-0.67l0,0m17.16,-17l0.67,0.07l0,17.85l1.77,1l0,0.77l-10.1,0l0,-0.77l1.81,-1l0,-15l-2.19,-0.82l0,-0.59l8,-1.43m0.7,-4.82a3.49,3.49 0 1 1 -3.44,-3.38a3.37,3.37 0 0 1 3.44,3.38l0,0m22.68,22.74l0,-15.25l-2.14,-0.75l0,-0.73l7.77,-1.45l0.78,0.08l0,2.28l0.21,0a10.25,10.25 0 0 1 6.62,-2.46c3.38,0 4.87,1.6 4.87,5.18l0,13l1.82,1l0,0.75l-10.09,0l0,-0.77l1.82,-1l0,-12.66c0,-2 -0.86,-2.74 -2.46,-2.74a4.17,4.17 0 0 0 -2.66,0.85l0,14.63l1.78,1l0,0.78l-10.11,0l0,-0.77l1.82,-1m-11,-9.56l0,-2.55c0,-3.84 -0.84,-5.1 -3.22,-5.1a7.41,7.41 0 0 0 -0.8,0.07l-4.23,5.74l-0.59,0l0,-5.29a22.83,22.83 0 0 1 7.1,-1.23c5.17,0 8.17,1.44 8.17,5.77l0,12.43l1.85,0.48l0,0.49a8,8 0 0 1 -3.81,0.87c-2.55,0 -3.77,-0.83 -4.33,-2.23l-0.18,0a5.74,5.74 0 0 1 -5,2.3a4.85,4.85 0 0 1 -5.18,-5.24c0,-3.21 2,-5 6.05,-5.73l4.2,-0.78m0,8.6l0,-7.69l-1.29,0.1c-2,0.18 -2.76,1.47 -2.76,4.34c0,3.1 1,3.91 2.44,3.91a1.88,1.88 0 0 0 1.61,-0.66l0,0m-65.55,-8.6l0,-2.55c0,-3.84 -0.84,-5.1 -3.22,-5.1a7,7 0 0 0 -0.8,0.07l-4.23,5.73l-0.64,0l0,-5.28a22.82,22.82 0 0 1 7.09,-1.23c5.18,0 8.18,1.44 8.18,5.77l0,12.43l1.85,0.48l0,0.49a8,8 0 0 1 -3.81,0.87c-2.55,0 -3.77,-0.83 -4.33,-2.23l-0.18,0a5.74,5.74 0 0 1 -5,2.3a4.85,4.85 0 0 1 -5.18,-5.24c0,-3.21 2,-5 6,-5.73l4.2,-0.78m0,8.6l0,-7.69l-1.3,0.1c-2,0.18 -2.76,1.47 -2.76,4.34c0,3.1 1,3.91 2.45,3.91a1.88,1.88 0 0 0 1.61,-0.66" class="cls-1" id="path98"/>
   </g>
  </g>
 </g>
</svg>