<svg id="Layer_1" data-name="Layer 1" xmlns="http://www.w3.org/2000/svg" viewBox="0 0 280 300"><defs><style>.cls-1{fill:#231f20;}</style></defs><title>theguardian logo</title><g id="layer1"><g id="g96"><path id="path98" class="cls-1" d="M98.35,151.66l2.67-1.38V129.35H99l-4.92,6.52h-.55l.31-7.33h21.32l.31,7.34h-.59l-4.81-6.53H108v20.88l2.68,1.41v.71H98.35v-.69m19.2-.92V127.55l-2.07-.83v-.43l7.47-1.38h.82v11l.17-.18a10,10,0,0,1,6.41-2.37c3.27,0,4.71,1.85,4.71,5.29v12.08l1.75.95v.66H127v-.66l1.76-1V138.62c0-1.9-.83-2.65-2.38-2.65a4.11,4.11,0,0,0-2.59.85v14l1.73.95v.63h-9.78v-.63l1.77-1m24.58-7.13c.2,3.83,1.92,6.8,6,6.8a9.46,9.46,0,0,0,4.66-1.6v.75a9.18,9.18,0,0,1-7.19,3.35c-6.31,0-9.53-3.51-9.53-9.58s3.53-9.63,9.22-9.63c5.36,0,8.14,2.68,8.14,9.74v.18H142.13m-.11-.88,5.56-.34c0-4.75-.81-7.9-2.44-7.9s-3.12,3.67-3.12,8.24h0M63.66,161.64c0-10.09,6.68-13.69,14.12-13.69a23,23,0,0,1,7.81,1.2l.14,7H85l-4.36-6.81a6.39,6.39,0,0,0-2.77-.45c-4,0-6,4.57-5.91,12.06.07,9,1.63,13,5.26,13a5.62,5.62,0,0,0,2.18-.36v-9.6L77,162.71v-.82H88.6v.86l-2.36,1.32v9.47A25.83,25.83,0,0,1,77.49,175c-8.46,0-13.83-3.92-13.83-13.39h0m23.86-4.71v-.58L95.29,155l.85.08v15.34c0,1.85.89,2.42,2.39,2.42a3.19,3.19,0,0,0,2.52-1.19V157.85l-2.13-.93v-.6l7.76-1.37.79.07v17.61l2.09.88v.56L102,175l-.78-.07v-2.32H101a8.62,8.62,0,0,1-5.83,2.46c-3.73,0-5.44-2.21-5.44-5.55V157.85l-2.16-.92m48.81-2,.64.07v5.7h.18c.83-4.14,2.67-5.7,4.91-5.7a2.64,2.64,0,0,1,1,.15v5.77a6.66,6.66,0,0,0-1.6-.14,9.8,9.8,0,0,0-4.24.84v11.23l1.77,1v.77H128.86v-.77l1.81-1V157.53l-2.13-.64v-.51l7.79-1.44m19.54.48v-6l-2.14-.75v-.47l7.86-1.44.75.11V172.6l2.17.79v.66l-7.77,1-.6-.07V172.9H156a6.93,6.93,0,0,1-5.18,2.17c-4.23,0-7.32-3.24-7.32-9.84,0-7,3.59-10.4,9-10.4a7.67,7.67,0,0,1,3.38.59h0m0,16.48V156.5a2.86,2.86,0,0,0-2.15-.67c-2.1.07-3.4,3.24-3.4,8.9,0,5.09.93,7.93,3.73,7.84a2.82,2.82,0,0,0,1.82-.67h0m17.16-17,.67.07v17.85l1.77,1v.77H165.38v-.77l1.81-1v-15L165,157v-.59l8-1.43m.7-4.82a3.49,3.49,0,1,1-3.44-3.38,3.37,3.37,0,0,1,3.44,3.38v0m22.68,22.74V157.65l-2.14-.75v-.73l7.77-1.45.78.08v2.28H203a10.25,10.25,0,0,1,6.62-2.46c3.38,0,4.87,1.6,4.87,5.18v13l1.82,1v.75H206.22v-.77l1.82-1V160.12c0-2-.86-2.74-2.46-2.74a4.17,4.17,0,0,0-2.66.85v14.63l1.78,1v.78H194.59v-.77l1.82-1m-11-9.56v-2.55c0-3.84-.84-5.1-3.22-5.1a7.41,7.41,0,0,0-.8.07l-4.23,5.74h-.59v-5.29a22.83,22.83,0,0,1,7.1-1.23c5.17,0,8.17,1.44,8.17,5.77v12.43l1.85.48v.49a8,8,0,0,1-3.81.87c-2.55,0-3.77-.83-4.33-2.23h-.18a5.74,5.74,0,0,1-5,2.3,4.85,4.85,0,0,1-5.18-5.24c0-3.21,2-5,6.05-5.73l4.2-.78m0,8.6v-7.69l-1.29.1c-2,.18-2.76,1.47-2.76,4.34,0,3.1,1,3.91,2.44,3.91a1.88,1.88,0,0,0,1.61-.66h0m-65.55-8.6v-2.55c0-3.84-.84-5.1-3.22-5.1a7,7,0,0,0-.8.07l-4.23,5.73H111v-5.28a22.82,22.82,0,0,1,7.09-1.23c5.18,0,8.18,1.44,8.18,5.77v12.43l1.85.48v.49a8,8,0,0,1-3.81.87c-2.55,0-3.77-.83-4.33-2.23h-.18a5.74,5.74,0,0,1-5,2.3,4.85,4.85,0,0,1-5.18-5.24c0-3.21,2-5,6-5.73l4.2-.78m0,8.6v-7.69l-1.3.1c-2,.18-2.76,1.47-2.76,4.34,0,3.1,1,3.91,2.45,3.91a1.88,1.88,0,0,0,1.61-.66"/></g></g></svg>